<svg xmlns="http://www.w3.org/2000/svg" xmlns:xlink="http://www.w3.org/1999/xlink">            
    <symbol id="gitlab">
        <path d="M4.844.904a1.007 1.007 0 00-.955.692l-2.53 7.783c0 .007-.005.012-.007.02L.07 13.335a1.437 1.437 0 00.522 1.607l11.072 8.045a.566.566 0 00.67-.004l11.074-8.04a1.436 1.436 0 00.522-1.61l-1.26-3.867a.547.547 0 00-.031-.104l-2.526-7.775a1.004 1.004 0 00-.957-.684.987.987 0 00-.949.69l-2.406 7.408H8.203l-2.41-7.408a.987.987 0 00-.943-.69h-.006zm-.006 1.42l2.174 6.678H2.674l2.164-6.678zm14.328 0l2.168 6.678h-4.342l2.174-6.678zm-10.594 7.81h6.862l-2.15 6.618L12 20.693 8.572 10.135zm-5.515.005h4.322l3.086 9.5-7.408-9.5zm13.568 0h4.326l-6.703 8.588-.709.914 2.959-9.108.127-.394zM2.1 10.762l6.978 8.947-7.818-5.682a.305.305 0 01-.112-.341l.952-2.924zm19.8 0l.952 2.922a.305.305 0 01-.11.341v.002l-7.82 5.68.025-.035 6.953-8.91Z"/>
    </symbol>
    <symbol id="github">
        <path d="M12 .297c-6.63 0-12 5.373-12 12 0 5.303 3.438 9.8 8.205 11.385.6.113.82-.258.82-.577 0-.285-.01-1.04-.015-2.04-3.338.724-4.042-1.61-4.042-1.61C4.422 18.07 3.633 17.7 3.633 17.7c-1.087-.744.084-.729.084-.729 1.205.084 1.838 1.236 1.838 1.236 1.07 1.835 2.809 1.305 3.495.998.108-.776.417-1.305.76-1.605-2.665-.3-5.466-1.332-5.466-5.93 0-1.31.465-2.38 1.235-3.22-.135-.303-.54-1.523.105-3.176 0 0 1.005-.322 3.3 1.23.96-.267 1.98-.399 3-.405 1.02.006 2.04.138 3 .405 2.28-1.552 3.285-1.23 3.285-1.23.645 1.653.24 2.873.12 3.176.765.84 1.23 1.91 1.23 3.22 0 4.61-2.805 5.625-5.475 5.92.42.36.81 1.096.81 2.22 0 1.606-.015 2.896-.015 3.286 0 .315.21.69.825.57C20.565 22.092 24 17.592 24 12.297c0-6.627-5.373-12-12-12"/>
    </symbol>
    <symbol id="stackoverflow">
        <path d="M18.986 21.865v-6.404h2.134V24H1.844v-8.539h2.13v6.404h15.012zM6.111 19.731H16.85v-2.137H6.111v2.137zm.259-4.852l10.48 2.189.451-2.07-10.478-2.187-.453 2.068zm1.359-5.056l9.705 4.53.903-1.95-9.706-4.53-.902 1.936v.014zm2.715-4.785l8.217 6.855 1.359-1.62-8.216-6.853-1.35 1.617-.01.001zM15.751 0l-1.746 1.294 6.405 8.604 1.746-1.294L15.749 0h.002z"/>
    </symbol>
    <symbol id="linkedin">
        <path d="M20.447 20.452h-3.554v-5.569c0-1.328-.027-3.037-1.852-3.037-1.853 0-2.136 1.445-2.136 2.939v5.667H9.351V9h3.414v1.561h.046c.477-.9 1.637-1.85 3.37-1.85 3.601 0 4.267 2.37 4.267 5.455v6.286zM5.337 7.433c-1.144 0-2.063-.926-2.063-2.065 0-1.138.92-2.063 2.063-2.063 1.14 0 2.064.925 2.064 2.063 0 1.139-.925 2.065-2.064 2.065zm1.782 13.019H3.555V9h3.564v11.452zM22.225 0H1.771C.792 0 0 .774 0 1.729v20.542C0 23.227.792 24 1.771 24h20.451C23.2 24 24 23.227 24 22.271V1.729C24 .774 23.2 0 22.222 0h.003z"/>
    </symbol>
    <symbol id="email">
        <path d="M11.585 5.267c1.834 0 3.558.811 4.824 2.08v.004c0-.609.41-1.068.979-1.068h.145c.891 0 1.073.842 1.073 1.109l.005 9.475c-.063.621.64.941 1.029.543 1.521-1.564 3.342-8.038-.946-11.79-3.996-3.497-9.357-2.921-12.209-.955-3.031 2.091-4.971 6.718-3.086 11.064 2.054 4.74 7.931 6.152 11.424 4.744 1.769-.715 2.586 1.676.749 2.457-2.776 1.184-10.502 1.064-14.11-5.188C-.977 13.521-.847 6.093 5.62 2.245 10.567-.698 17.09.117 21.022 4.224c4.111 4.294 3.872 12.334-.139 15.461-1.816 1.42-4.516.037-4.498-2.031l-.019-.678c-1.265 1.256-2.948 1.988-4.782 1.988-3.625 0-6.813-3.189-6.813-6.812 0-3.659 3.189-6.885 6.814-6.885zm4.561 6.623c-.137-2.653-2.106-4.249-4.484-4.249h-.09c-2.745 0-4.268 2.159-4.268 4.61 0 2.747 1.842 4.481 4.256 4.481 2.693 0 4.464-1.973 4.592-4.306l-.006-.536z"/>
    </symbol>
</svg>
